# xmcd
#
# Track frame offsets:
#	150
#	12374
#	24315
#	42782
#	58638
#	72089
#	83862
#	98329
#	116249
#	126628
#	140870
#	151884
#	165351
#	180038
#
# Disc length: 2579 seconds
#
# Revision: 1
# Processed by: cddbd v1.5.2PL0 Copyright (c) Steve Scherf et al.
# Submitted via: EZCDAudioConverter 2.1.7.1
#
DISCID=ac0a110e
DTITLE=Chris Farlowe - The Art Of Chris Farlowe
DYEAR=1966
DGENRE=
TTITLE0=What Becomes Of The Broken Hearted
TTITLE1=We're Doing Fine
TTITLE2=Life Is But Nothing
TTITLE3=Paint It Black
TTITLE4=Cuttin' In
TTITLE5=Open The Door To Your Heart
TTITLE6=Out Of Time
TTITLE7=North South East West
TTITLE8=You're So Good To Me
TTITLE9=It Was Easier To Hurt Her
TTITLE10=I'm Free
TTITLE11=I've Been Loving You Too Long
TTITLE12=Reach Out, I'll Be There
TTITLE13=Ride On Baby
EXTD=
EXTT0=
EXTT1=
EXTT2=
EXTT3=
EXTT4=
EXTT5=
EXTT6=
EXTT7=
EXTT8=
EXTT9=
EXTT10=
EXTT11=
EXTT12=
EXTT13=
PLAYORDER=
